<?xml version="1.0" encoding="iso-8859-1"?>
<!-- Generator: Adobe Illustrator 19.0.0, SVG Export Plug-In . SVG Version: 6.00 Build 0)  -->
<svg version="1.1" id="Capa_1" xmlns="http://www.w3.org/2000/svg" xmlns:xlink="http://www.w3.org/1999/xlink" x="0px" y="0px"
	 viewBox="0 0 512 512" style="enable-background:new 0 0 512 512;" xml:space="preserve">
<path style="fill:#29ABE2;" d="M358.4,401.067h119.467v68.267H358.4V401.067z"/>
<path style="fill:#CCCCCC;" d="M366.933,469.333h102.4V512h-102.4V469.333z"/>
<path style="fill:#F2C09A;" d="M461.833,401.067l31.334-75.46c13.329-32.734,13.739-69.316,1.126-102.34L444.032,91.452
	c-4.625-11.853-17.98-17.715-29.833-13.099c-0.06,0.026-0.111,0.043-0.171,0.068c-11.571,4.437-17.357,17.417-12.919,28.988
	c0.085,0.213,0.171,0.427,0.256,0.64l30.293,71.347c1.596,3.942,2.62,8.09,3.029,12.322c-2.569-11.503-13.969-18.739-25.463-16.179
	c-9.719,2.167-16.649,10.769-16.691,20.727v66.193c0,8.021-1.869,15.923-5.453,23.1c-13.244,26.496-20.147,55.714-20.147,85.333
	v30.174H461.833z"/>
<g>
	<path style="fill:#E9937C;" d="M387.029,285.534c3.584-7.177,5.453-15.078,5.453-23.1v-66.167c0-11.785,9.549-21.333,21.333-21.333
		c2.918,0.017,5.803,0.64,8.474,1.826c-7.74,3.405-12.732,11.059-12.74,19.507v66.193c0,8.021-1.869,15.923-5.453,23.1
		c-13.252,26.496-20.147,55.714-20.147,85.333v30.174h-17.067v-30.191C366.882,341.248,373.777,312.03,387.029,285.534z"/>
	<path style="fill:#E9937C;" d="M413.969,78.396c5.47-2.142,11.554-2.125,17.007,0.051c-11.546,4.497-17.263,17.502-12.766,29.047
		c0.068,0.179,0.145,0.358,0.213,0.529l30.293,71.339c2.338,5.504,3.55,11.418,3.55,17.399v101.905h-17.118V196.762
		c0-5.982-1.203-11.895-3.541-17.399l-30.293-71.339c-4.796-11.426,0.58-24.576,12.006-29.363
		C413.534,78.566,413.747,78.481,413.969,78.396z"/>
</g>
<path style="fill:#0071BC;" d="M435.2,426.667h17.067v17.067H435.2V426.667z"/>
<path style="fill:#29ABE2;" d="M153.6,469.333H34.133v-68.267H153.6V469.333z"/>
<path style="fill:#CCCCCC;" d="M145.067,512h-102.4v-42.667h102.4V512z"/>
<path style="fill:#F2C09A;" d="M50.167,401.067l-31.334-75.46c-13.329-32.734-13.739-69.316-1.126-102.34L67.968,91.452
	c4.625-11.853,17.98-17.715,29.833-13.099c0.06,0.026,0.111,0.043,0.171,0.068c11.571,4.437,17.357,17.417,12.919,28.988
	c-0.085,0.213-0.171,0.427-0.256,0.64l-30.293,71.347c-1.596,3.942-2.62,8.09-3.029,12.322
	c2.569-11.503,13.969-18.739,25.463-16.179c9.719,2.167,16.649,10.769,16.691,20.727v66.193c0,8.021,1.869,15.923,5.453,23.1
	c13.244,26.496,20.147,55.714,20.147,85.333v30.174H50.167z"/>
<g>
	<path style="fill:#E9937C;" d="M124.971,285.534c-3.584-7.177-5.453-15.078-5.453-23.1v-66.167
		c0-11.785-9.549-21.333-21.333-21.333c-2.918,0.017-5.803,0.64-8.474,1.826c7.74,3.405,12.732,11.059,12.74,19.507v66.193
		c0,8.021,1.869,15.923,5.453,23.1c13.252,26.496,20.147,55.714,20.147,85.333v30.174h17.067v-30.191
		C145.118,341.248,138.223,312.03,124.971,285.534z"/>
	<path style="fill:#E9937C;" d="M98.031,78.396c-5.47-2.142-11.554-2.125-17.007,0.051c11.546,4.497,17.263,17.502,12.766,29.047
		c-0.068,0.179-0.145,0.358-0.213,0.529l-30.293,71.339c-2.338,5.504-3.55,11.418-3.55,17.399v101.905h17.118V196.762
		c0-5.982,1.203-11.895,3.541-17.399l30.293-71.339c4.796-11.426-0.58-24.576-12.006-29.363
		C98.466,78.566,98.253,78.481,98.031,78.396z"/>
</g>
<path style="fill:#0071BC;" d="M59.733,426.667H76.8v17.067H59.733V426.667z"/>
<circle style="fill:#FED856;" cx="256" cy="196.267" r="102.4"/>
<g>
	<path style="fill:#CD9829;" d="M264.533,154.837v-9.771h-17.067v9.771c-12.8,3.985-19.942,17.587-15.966,30.379
		c1.971,6.323,6.434,11.571,12.365,14.524l16.631,8.32c3.601,1.801,5.06,6.178,3.26,9.779c-1.229,2.466-3.755,4.028-6.511,4.028
		h-2.492c-4.019-0.009-7.279-3.268-7.287-7.287v-1.246H230.4v1.246c0.043,10.607,6.946,19.959,17.067,23.117v9.771h17.067v-9.771
		c12.8-3.985,19.942-17.587,15.966-30.379c-1.971-6.323-6.434-11.571-12.365-14.524l-16.631-8.32
		c-3.601-1.801-5.06-6.178-3.26-9.779c1.229-2.466,3.755-4.028,6.511-4.028h2.492c4.019,0.009,7.279,3.268,7.287,7.287v1.246H281.6
		v-1.246C281.557,167.347,274.654,157.995,264.533,154.837z"/>
	<path style="fill:#CD9829;" d="M298.667,187.733h17.067V204.8h-17.067V187.733z"/>
	<path style="fill:#CD9829;" d="M196.267,187.733h17.067V204.8h-17.067V187.733z"/>
	<path style="fill:#CD9829;" d="M332.8,68.267h17.067v71.484H332.8V68.267z"/>
	<path style="fill:#CD9829;" d="M179.2,34.133h17.067v85.956H179.2V34.133z"/>
	<path style="fill:#CD9829;" d="M307.2,116.096c-1.502,0-2.97-0.393-4.267-1.143c-18.884-10.991-41.062-14.925-62.575-11.093
		c-2.475,0.401-5.001-0.29-6.929-1.903c-1.929-1.63-3.038-4.028-3.029-6.554V42.667h17.067v43.042
		c2.918-0.247,5.751-0.375,8.533-0.375c14.643,0.009,29.141,2.91,42.667,8.533V25.6h17.067v81.963
		C315.733,112.273,311.91,116.096,307.2,116.096z"/>
	<path style="fill:#CD9829;" d="M264.533,8.533H281.6v34.133h-17.067V8.533z"/>
	<path style="fill:#CD9829;" d="M256,358.4c-15.232,0.009-30.387-2.125-45.03-6.332l4.727-16.401
		c13.099,3.763,26.667,5.675,40.303,5.666c32.094,0.111,63.3-10.53,88.644-30.225l10.445,13.5
		C326.758,346.624,291.874,358.519,256,358.4z"/>
	<path style="fill:#CD9829;" d="M147.874,99.558l-12.723-11.383c6.622-7.398,13.909-14.174,21.76-20.25l10.436,13.5
		C160.324,86.869,153.805,92.937,147.874,99.558z"/>
	<path style="fill:#CD9829;" d="M179.2,0h17.067v17.067H179.2V0z"/>
	<path style="fill:#CD9829;" d="M332.8,34.133h17.067V51.2H332.8V34.133z"/>
	<path style="fill:#CD9829;" d="M192.947,345.685c-6.187-2.62-12.203-5.615-18.014-8.986l8.533-14.763
		c5.197,3.004,10.581,5.683,16.111,8.013L192.947,345.685z"/>
</g>
<g>
</g>
<g>
</g>
<g>
</g>
<g>
</g>
<g>
</g>
<g>
</g>
<g>
</g>
<g>
</g>
<g>
</g>
<g>
</g>
<g>
</g>
<g>
</g>
<g>
</g>
<g>
</g>
<g>
</g>
</svg>
